<svg id="Layer_1" data-name="Layer 1" xmlns="http://www.w3.org/2000/svg" viewBox="0 0 495.29 152.6"><defs><style>.cls-1{fill:#474748;}.cls-2{fill:#166e7d;}.cls-3{fill:#e0ab25;}.cls-4{fill:#e0ac27;}.cls-5{fill:#5d9aa4;}.cls-6{fill:#fefefe;}</style></defs><path class="cls-1" d="M210.08,149.6c0-5.59,0-11.19,0-16.78,0-5-.43-5.59-5.33-7-.41-.11-.78-.15-.8-.68,0-.91.67-.75,1.18-.75,4.07,0,8.14,0,12.22,0,5.5,0,11-.2,16.38,1.45,10.46,3.21,15.44,10.48,15.2,22.31-.2,9.93-6.47,17.78-16.17,20.35-5.82,1.54-11.74.88-17.63,1-5,.08-5,0-5-5Z" transform="translate(-9.62 -17.54)"/><path class="cls-2" d="M18.27,48.2a209.77,209.77,0,0,1,88.52-14.84c25.21,1.22,49.82,6,74.05,13,15.31,4.42,30.32,9.85,45.76,13.88,3.37.89,6.78,1.64,10.18,2.46-1.54,3.92-1.57,4-5.44,3.09-12.5-2.95-24.65-7.12-36.84-11.11a422,422,0,0,0-62.84-15.58,226.45,226.45,0,0,0-58.19-2.46A222,222,0,0,0,19.18,48.59C18.69,48.89,18.29,49,18.27,48.2Z" transform="translate(-9.62 -17.54)"/><path class="cls-2" d="M504.78,50.59c-2.44-.86-4.89-1.71-7.33-2.58a214.66,214.66,0,0,0-49.63-11,206,206,0,0,0-36.58-.75,330.84,330.84,0,0,0-47,7.28c-21.15,4.62-41.54,11.81-62.17,18.2-4.49,1.39-9.06,2.54-13.61,3.72-3.93,1-3.94,1-5.89-2.78,4.85-1.25,9.7-2.4,14.49-3.77,16.47-4.73,32.63-10.47,49.21-14.86C368.46,38.16,391,34.17,414,33.29a208.26,208.26,0,0,1,89.45,16.26c.51.21,1,.46,1.5.7Z" transform="translate(-9.62 -17.54)"/><path class="cls-1" d="M105.61,169.29l12.52-29.47c1.9-4.47,3.78-8.95,5.74-13.4.37-.84.37-2,1.91-2s1.55,1.1,1.92,2q7.38,17.76,14.75,35.54c1.2,2.89,2.73,5.45,6.18,6,.62.11,1.08.39.89,1.11s-.93.77-1.54.86a11.85,11.85,0,0,1-12.2-7.05,47.64,47.64,0,0,1-1.94-4.88,1.82,1.82,0,0,0-2.08-1.43q-8,.11-16,0a1.91,1.91,0,0,0-2.09,1.43c-1.21,3-2.65,6-3.75,9.05C109.13,169.06,108.14,170.15,105.61,169.29Z" transform="translate(-9.62 -17.54)"/><path class="cls-1" d="M320,155.82c0-3.84.07-7.68,0-11.51-.07-3.06-1-5.6-4.82-5.48-.53,0-1.2,0-1.16-.81,0-.52.4-.64.82-.63,2.79.1,5.6-.34,8.36.26,1.58,2.41,2.09,1.79,7-.36,7.06-2.38,16.77-.77,16.67,10.94-.06,6.4-.07,12.79,0,19.19,0,1.61-.32,2.19-2.06,2.15-4.2-.09-4.2,0-4.2-4.31,0-5.76.06-11.52,0-17.27-.07-4.71-2.24-7.7-5.9-8.49a6.75,6.75,0,0,0-8.32,6.54c0,7.12-.05,14.23,0,21.35,0,1.58-.28,2.22-2.05,2.18-4.36-.08-4.36,0-4.36-4.4v-9.35Z" transform="translate(-9.62 -17.54)"/><path class="cls-1" d="M311.52,153.18c-.25,8.55-4.25,14.45-10.64,16.28-8.71,2.5-16.78-2.08-19-10.91-1.52-6.1-.89-12,3.1-17A14.63,14.63,0,0,1,301.06,137c6.19,2,9.28,6.68,10.22,12.93C311.47,151.23,311.47,152.51,311.52,153.18Z" transform="translate(-9.62 -17.54)"/><path class="cls-1" d="M371.48,154.17c-2.8,0-5.6.11-8.39,0-1.74-.09-2.06.64-1.81,2.08.16.95.24,1.92.49,2.84,1,3.61,2.65,6.79,6.66,7.74s7.51-.39,10.36-3.44c.51-.55.8-2.14,2.1-.95,1.06,1-.15,1.58-.57,2.18-3.33,4.72-8.13,6-13.51,5.34-5-.6-8.5-3.46-10.53-8-3.23-7.3-1.85-16.92,3.06-21.79,4.25-4.22,9.35-4.51,14.68-2.89,5.06,1.53,7.16,5.52,7.84,10.44.9,6.52.88,6.52-5.59,6.52Z" transform="translate(-9.62 -17.54)"/><path class="cls-3" d="M259.77,17.54,285.22,58.9c-4.15,1.63-4.16,1.64-6.33-1.9L261.2,28.23c-.42-.68-.86-1.33-1.46-2.24-2.85,4.62-5.61,9.06-8.34,13.5q-5.85,9.49-11.67,19a3.45,3.45,0,0,1-4.85,1c-1-.77,0-1.45.31-2q4.73-7.78,9.53-15.52Z" transform="translate(-9.62 -17.54)"/><path class="cls-1" d="M400.35,170a18.39,18.39,0,0,1-6.35-.66c-4.3-1.18-6.16-4.06-5.53-8.46,0-.4,0-.79.53-.89.74-.14.89.34,1.15.89,2.58,5.54,6.83,7.46,12.87,5.81,2-.53,3.51-1.57,3.84-3.77s-.77-3.49-2.39-4.59c-2.4-1.62-5.14-2.51-7.76-3.65a20.23,20.23,0,0,1-5.37-3.09,8.15,8.15,0,0,1,1.56-13.62c5.17-2.5,10.56-2.16,15.74.12,2.53,1.11,3.93,4.82,3.3,7.62-.1.43-.16.75-.68.79-.72.06-.89-.39-1.13-1-2.25-5.31-6.49-7.36-11.9-5.77-1.88.55-3.32,1.58-3.72,3.63s.69,3.35,2.11,4.49c2,1.63,4.5,2.36,6.84,3.36a27,27,0,0,1,6.1,3.23,8.18,8.18,0,0,1-1.48,14.14A14.43,14.43,0,0,1,400.35,170Z" transform="translate(-9.62 -17.54)"/><path class="cls-1" d="M154.44,149.56V133.25c0-.72,0-1.44-.05-2.16-.33-3.8-1.11-4.62-4.86-5.21-.51-.09-1.22.11-1.21-.76s.73-.68,1.23-.69c2.24,0,4.48-.07,6.71,0a4,4,0,0,1,4.08,3.36,23.59,23.59,0,0,1,.4,5.49c0,10.32.07,20.63,0,30.95,0,2.05.59,2.49,2.53,2.45,6.63-.12,13.27,0,19.9,0,1,0,2.05-.4,2.06,1.39s-.93,1.48-2,1.48c-9,0-17.91-.05-26.86,0-1.61,0-2-.48-2-2C154.49,161.56,154.44,155.56,154.44,149.56Z" transform="translate(-9.62 -17.54)"/><path class="cls-1" d="M256.69,155.87c0-3.67,0-7.35,0-11-.06-4-.66-4.82-4.54-6-.55-.16-.84-.33-.79-.93s.47-.61.85-.56c3.48.46,7.43-1.4,10.28,2.19.66.82,1.1-.19,1.5-.55a10.68,10.68,0,0,1,8.41-2.61,5.13,5.13,0,0,1,4.25,2.3c.41.68,1.76,1.39.51,2.37-.94.73-1.66,2-3.39.77a7.38,7.38,0,0,0-7.12-.52c-2.27.9-3.73,2.29-3.65,5.19.21,6.94,0,13.89.1,20.83,0,1.55-.21,2.25-2,2.22-4.38-.09-4.38,0-4.38-4.37Z" transform="translate(-9.62 -17.54)"/><path class="cls-3" d="M239.68,67.48l19.69-32.09c.48,4,1,7.76-1.57,11.4-3.47,4.87-6.36,10.15-9.49,15.25-1.37,2.23-1.36,2.19,1.17,2.4a112,112,0,0,0,19.38,0,2.72,2.72,0,0,1,3,3.33c-.18,1-1,.83-1.69.89A114.4,114.4,0,0,1,239.68,67.48Z" transform="translate(-9.62 -17.54)"/><path class="cls-4" d="M299.4,85.56C294.68,80.31,290.05,75,286.3,69c4.33-1.8,4.34-1.81,6.23,2.12Q296,78.35,299.4,85.56Z" transform="translate(-9.62 -17.54)"/><path class="cls-4" d="M233.26,69.06a125.52,125.52,0,0,1-13.19,16.63L226,73.25c.24-.5.52-1,.76-1.49C228.88,67.05,228.32,67.91,233.26,69.06Z" transform="translate(-9.62 -17.54)"/><path class="cls-5" d="M18.27,48.2l.91.39L9.62,52.5A34.77,34.77,0,0,1,18.27,48.2Z" transform="translate(-9.62 -17.54)"/><path class="cls-6" d="M216.57,146.73c0-5.51.05-11,0-16.53a1.9,1.9,0,0,1,1.75-2.25c11.92-3,22.27,4.72,23,17a23,23,0,0,1-2.4,12.51c-4.42,8.26-12.87,10.27-21.15,8.49-1.36-.3-1.15-1.31-1.15-2.25Z" transform="translate(-9.62 -17.54)"/><path class="cls-6" d="M123.76,134.25c2.84,6.79,5.42,12.94,8.13,19.44-5.32,0-10.37,0-15.43,0-1,0-1-.47-.67-1.21C118.37,146.61,120.93,140.73,123.76,134.25Z" transform="translate(-9.62 -17.54)"/><path class="cls-6" d="M304.8,153.25a17.41,17.41,0,0,1-2.64,10.27c-3.25,4.81-8.79,4.85-11.66-.18a19.41,19.41,0,0,1,0-20.3c2.9-5,8.43-4.92,11.66-.08A17.54,17.54,0,0,1,304.8,153.25Z" transform="translate(-9.62 -17.54)"/><path class="cls-6" d="M368.43,151.29c-1.75,0-3.52-.12-5.25,0s-2.15-.66-1.88-2.22c.45-2.69,1-5.34,2.81-7.51a5.67,5.67,0,0,1,9.58.84c1.34,2.35,1.6,4.95,1.83,7.58.1,1.17-.41,1.31-1.36,1.29C372.25,151.26,370.34,151.29,368.43,151.29Z" transform="translate(-9.62 -17.54)"/></svg>
